<svg id="Premade_Boho_Logos" data-name="Premade Boho Logos" xmlns="http://www.w3.org/2000/svg" viewBox="0 0 605.36 573.45"><defs><style>.cls-1,.cls-2,.cls-7{fill:#333;}.cls-2{font-size:118px;font-family:ACaslonPro-BoldItalic, Adobe Caslon Pro;font-weight:700;font-style:italic;}.cls-3{letter-spacing:-0.04em;}.cls-4{letter-spacing:-0.01em;}.cls-5{letter-spacing:-0.01em;}.cls-6{letter-spacing:0.01em;}.cls-7{font-size:29px;font-family:HelveticaNeue-Medium, Helvetica Neue;font-weight:500;}</style></defs><path class="cls-1" d="M1947.17,1230.31h0a1,1,0,0,1-1-.9,12.16,12.16,0,0,0-6.86-9.75,1,1,0,0,1-.47-1.27,1,1,0,0,1,.47-.47,12.23,12.23,0,0,0,6.86-9.74,1,1,0,0,1,1-.9h0a1,1,0,0,1,1,.9,12.19,12.19,0,0,0,6.86,9.74,1,1,0,0,1,.46,1.28.94.94,0,0,1-.46.46,12.21,12.21,0,0,0-6.86,9.75A1,1,0,0,1,1947.17,1230.31Zm-5.41-11.52a13.66,13.66,0,0,1,5.41,6.61,13.71,13.71,0,0,1,5.41-6.61,13.64,13.64,0,0,1-5.41-6.6A13.64,13.64,0,0,1,1941.76,1218.79Z" transform="translate(-1594.68 -1001.79)"/><path class="cls-1" d="M1888.21,1169.68h0a1,1,0,0,1-1-.9,12.15,12.15,0,0,0-6.86-9.74,1,1,0,0,1-.47-1.27.9.9,0,0,1,.47-.47,12.23,12.23,0,0,0,6.87-9.75,1,1,0,0,1,1-.89h0a1,1,0,0,1,1,.89,12.21,12.21,0,0,0,6.86,9.75,1,1,0,0,1,0,1.74,12.2,12.2,0,0,0-6.86,9.75A1,1,0,0,1,1888.21,1169.68Zm-5.41-11.51a13.68,13.68,0,0,1,5.41,6.6,13.68,13.68,0,0,1,5.41-6.6,13.68,13.68,0,0,1-5.41-6.6A13.68,13.68,0,0,1,1882.8,1158.17Z" transform="translate(-1594.68 -1001.79)"/><path class="cls-1" d="M1790,1215.19h0a1,1,0,0,1-1-.9,12.22,12.22,0,0,0-6.87-9.74,1,1,0,0,1,0-1.75,12.21,12.21,0,0,0,6.87-9.74,1,1,0,0,1,1-.9h0a1,1,0,0,1,1,.9h0a12.19,12.19,0,0,0,6.86,9.74,1,1,0,0,1,.48,1.27,1,1,0,0,1-.48.48,12.2,12.2,0,0,0-6.86,9.74A1,1,0,0,1,1790,1215.19Zm-5.41-11.52a13.66,13.66,0,0,1,5.41,6.61,13.66,13.66,0,0,1,5.41-6.61,13.64,13.64,0,0,1-5.41-6.6,13.64,13.64,0,0,1-5.41,6.6Z" transform="translate(-1594.68 -1001.79)"/><path class="cls-1" d="M1853.58,1151.75a33.63,33.63,0,0,0,.25,6.42c0-.28,4.16-8.63,9.42-13.31a33.43,33.43,0,0,1,14.45-7.65,45.27,45.27,0,0,1,10.5-1.38,44.36,44.36,0,0,1,10.5,1.38,33.45,33.45,0,0,1,14.46,7.64c5.26,4.68,9.46,13,9.42,13.31a34.67,34.67,0,1,0-68.79-8.69Q1853.66,1150.61,1853.58,1151.75Z" transform="translate(-1594.68 -1001.79)"/><path class="cls-1" d="M1805.7,1077.84l41.61,41.61a1.54,1.54,0,0,0,2.18-2.17l-41.77-41.78C1807,1076.29,1806.36,1077.06,1805.7,1077.84Z" transform="translate(-1594.68 -1001.79)"/><path class="cls-1" d="M1831.91,1159.71a1.54,1.54,0,0,0,0-3.08h-46.76v1.54H1768v1.54Z" transform="translate(-1594.68 -1001.79)"/><path class="cls-1" d="M1944.51,1156.63a1.54,1.54,0,0,0,0,3.08h63.94v-1.54h-17.18v-1.54Z" transform="translate(-1594.68 -1001.79)"/><path class="cls-1" d="M1926.93,1117.27a1.54,1.54,0,1,0,2.12,2.24l.06-.06,41.61-41.61-2-2.34Z" transform="translate(-1594.68 -1001.79)"/><path class="cls-1" d="M1888.21,1103.41a1.54,1.54,0,0,0,1.54-1.54v-84a21.42,21.42,0,0,1-1.54-3.42,21.42,21.42,0,0,1-1.54,3.42v84A1.54,1.54,0,0,0,1888.21,1103.41Z" transform="translate(-1594.68 -1001.79)"/><path class="cls-1" d="M1865.24,1106.76a1.56,1.56,0,0,0,1.43,1,1.52,1.52,0,0,0,.59-.12,1.54,1.54,0,0,0,.83-2h0l-23.6-56.95-2.73,1.44Z" transform="translate(-1594.68 -1001.79)"/><path class="cls-1" d="M1835.61,1138.05a1.71,1.71,0,0,0,.59.11,1.54,1.54,0,0,0,.59-3l-49.36-20.44c-.22,1-.43,2.06-.61,3.08Z" transform="translate(-1594.68 -1001.79)"/><path class="cls-1" d="M1939.63,1135.2a1.53,1.53,0,0,0-.83,2,1.51,1.51,0,0,0,1.43,1,1.62,1.62,0,0,0,.58-.11l48.79-20.21c-.18-1-.39-2-.6-3.08Z" transform="translate(-1594.68 -1001.79)"/><path class="cls-1" d="M1908.33,1105.57a1.55,1.55,0,0,0,.83,2h0a1.62,1.62,0,0,0,.58.12,1.55,1.55,0,0,0,1.43-1l23.47-56.71-2.74-1.43Z" transform="translate(-1594.68 -1001.79)"/><path class="cls-1" d="M1876.23,1103.53a1.15,1.15,0,0,0,1.13.93l.22,0a1.17,1.17,0,0,0,.91-1.36l-12.92-65.3c-.73.44-1.44.84-2.12,1.19Z" transform="translate(-1594.68 -1001.79)"/><path class="cls-1" d="M1841.74,1128.2a1.15,1.15,0,0,0,.64-2.11l-47.63-31.9c-.36.7-.71,1.39-1,2.08L1841.1,1128A1.12,1.12,0,0,0,1841.74,1128.2Z" transform="translate(-1594.68 -1001.79)"/><path class="cls-1" d="M1942.85,1146.18a1.15,1.15,0,0,0-.9,1.36,1.14,1.14,0,0,0,1.12.93h.22l48-9.5q0-1.15,0-2.34Z" transform="translate(-1594.68 -1001.79)"/><path class="cls-1" d="M1952.16,1060.6l-33.79,50.46a1.16,1.16,0,0,0,1.93,1.28h0L1954,1062C1953.4,1061.51,1952.79,1061.05,1952.16,1060.6Z" transform="translate(-1594.68 -1001.79)"/><path class="cls-1" d="M1899,1104.45l.23,0a1.16,1.16,0,0,0,1.13-.93l12.89-64.46-.14-.08c-.63-.33-1.3-.7-2-1.1l-13,65.19a1.16,1.16,0,0,0,.91,1.36Z" transform="translate(-1594.68 -1001.79)"/><path class="cls-1" d="M1856.23,1112.28a1.15,1.15,0,1,0,1.92-1.28l-33.69-50.53c-.63.44-1.25.89-1.87,1.35Z" transform="translate(-1594.68 -1001.79)"/><path class="cls-1" d="M1833.38,1148.36a1.15,1.15,0,0,0,.22-2.28l-48.43-9.7c0,.8,0,1.58,0,2.35l48,9.62A.87.87,0,0,0,1833.38,1148.36Z" transform="translate(-1594.68 -1001.79)"/><path class="cls-1" d="M1933.78,1127.79a1.16,1.16,0,0,0,1.6.32l47.43-31.63c-.33-.69-.68-1.39-1-2.08l-47.68,31.79A1.15,1.15,0,0,0,1933.78,1127.79Z" transform="translate(-1594.68 -1001.79)"/><path class="cls-1" d="M1987.24,1236.66l1.28-.47a8.82,8.82,0,0,1,4.23-.77c1.63.25,3.14,1.57,4.62,2.84q5.45,4.71,11.1,9.17v-3.94q-4.62-3.69-9.09-7.57c-1.7-1.47-3.64-3.15-6.13-3.55a11.66,11.66,0,0,0-5.74.92l-.67.25a1.48,1.48,0,0,0-.79.23l-.19.13c-15.44,5.77-29.51,14.69-43.12,23.35l-.55.35a95.2,95.2,0,0,1-11.21-8.36c-4.56-3.77-9.27-7.67-14.94-10.45-3.22-1.58-6.59-3.14-9.86-4.65-7.66-3.53-15.58-7.19-22.56-11.58a53.77,53.77,0,0,1-8.11-6.76q-2.71-2.68-5.69-5.1a173,173,0,0,0-18-12.31,19.69,19.69,0,0,0-4.62-2.17c-6.24-1.74-11,2-15.13,5.2l-.71.56a49,49,0,0,1-7.7,4.53,52.05,52.05,0,0,0-8.15,4.79,79.16,79.16,0,0,0-10.19,9.93c-2.23,2.45-4.53,5-7,7.22a51.52,51.52,0,0,1-13.82,9c-5.57,2.47-11.1,5.09-16.55,7.69v3.42c5.85-2.82,11.81-5.66,17.79-8.31a54.59,54.59,0,0,0,14.64-9.55c2.57-2.33,4.93-4.92,7.2-7.43a76.7,76.7,0,0,1,9.78-9.55,48.47,48.47,0,0,1,7.7-4.5,51.28,51.28,0,0,0,8.2-4.84l.72-.56c3.93-3.08,7.64-6,12.36-4.67l1,2.13a31.38,31.38,0,0,0,4.87,6.67c.9,1,1.76,2,2.47,3a9.86,9.86,0,0,1,1.85,3.2c.55,2.09-.72,4.34-2.21,5.66a18.81,18.81,0,0,1-6.67,3.26l-.5.17a26.22,26.22,0,0,0-7.31,3.26,24.54,24.54,0,0,0-5.57,6.21,27.42,27.42,0,0,1-3.65,4.52,52.45,52.45,0,0,1-6.49,4.85,63.69,63.69,0,0,0-6.14,4.47,38.7,38.7,0,0,0-6.08,6.23c-.75,1-1.41,2.07-2,3.08a27.21,27.21,0,0,1-3.17,4.4,25.63,25.63,0,0,1-6.5,4.44,65.93,65.93,0,0,1-10.88,5c-2.28.73-4.72,1.26-7.09,1.78-4.94,1.08-10,2.19-14.27,5.17v4c.36-.32.72-.64,1.09-.93,3.85-3,8.7-4.06,13.83-5.18,2.44-.54,5-1.09,7.39-1.86a69.67,69.67,0,0,0,11.4-5.2,28,28,0,0,0,7.25-5,29,29,0,0,0,3.56-4.89c.64-1,1.24-2,1.92-2.89a36.33,36.33,0,0,1,5.62-5.73,60.86,60.86,0,0,1,5.84-4.25,54.55,54.55,0,0,0,6.88-5.15,30.83,30.83,0,0,0,4.07-5,21.82,21.82,0,0,1,4.84-5.49,23.67,23.67,0,0,1,6.48-2.84l.5-.17a21.77,21.77,0,0,0,7.74-3.87c2.69-2.37,3.93-5.8,3.16-8.75a12.41,12.41,0,0,0-2.38-4.28c-.77-1-1.66-2-2.6-3.13a41.49,41.49,0,0,1-3.57-4.48,169.84,169.84,0,0,1,16.93,11.64c1.92,1.5,3.72,3.23,5.46,4.89a54.6,54.6,0,0,0,8.6,7.15c7.15,4.49,15.16,8.19,22.91,11.77,3.25,1.5,6.61,3,9.8,4.62,5.33,2.62,9.7,6.23,14.33,10a106,106,0,0,0,10.28,7.82c-1.41.9-2.83,1.79-4.23,2.7l-1.65,1c-7.64,4.79-15.53,9.73-23.78,13.31-2.39,1-4.72,2.31-7,3.5-4.18,2.25-8.14,4.37-12.57,5.32a47.18,47.18,0,0,1-10.42.62,23.2,23.2,0,0,1-3.81-.47c-2.45-.44-5-.89-7.73-.06-7,2.13-13.27,6.85-19.31,11.42-2.33,1.77-4.54,3.44-6.75,4.93-6.58,4.45-13.69,7.47-21,10.44a80.13,80.13,0,0,1-10.1,3.56c-1.1.28-2.09.47-3,.66a28.6,28.6,0,0,0-5.53,1.49c-1.34-.52-2.65-1.07-3.94-1.67a127.64,127.64,0,0,1-11.33-6.17c-2.41-1.43-4.91-2.9-7.44-4.24a118.59,118.59,0,0,0-11.68-5.38v3.32c3.49,1.44,6.92,3,10.24,4.79,2.46,1.32,4.93,2.77,7.31,4.18a127.92,127.92,0,0,0,11.61,6.32c1.5.69,3,1.32,4.58,1.93a1.06,1.06,0,0,0,.25.09c4,1.54,8.16,2.79,12.2,4a132.28,132.28,0,0,1,16.2,5.66c7.34,3.31,13.35,8.19,19.68,13.36a1.64,1.64,0,0,0,.5.41,149.36,149.36,0,0,0,12.11,9.21,69.33,69.33,0,0,0,37.71,11.47h.39c1.74,0,3.49-.09,5.18-.17a68.12,68.12,0,0,1,9.69,0,66.6,66.6,0,0,1,12.47,2.9c10.59,3.17,22.07,6.62,32.42,12.05h6.25c-11.78-7.2-25.39-11.28-37.78-15a69.58,69.58,0,0,0-13-3,68.69,68.69,0,0,0-10.14-.05c-1.66.07-3.39.15-5.06.16h-.35a66.14,66.14,0,0,1-36-11c-2.87-1.9-5.65-4-8.35-6.18a20.88,20.88,0,0,0,5.51-1.36c2.48-1,4.82-2.13,7.09-3.26,2.1-1,4.27-2.12,6.5-3,2-.8,4-1.72,5.91-2.6a66.57,66.57,0,0,1,10.65-4.2c6.11-1.62,12.7-1.46,19.09-1.31,7.21.18,14.66.35,21.69-2,1.75-.57,3.44-1.28,5.08-2,1.43-.61,2.92-1.24,4.39-1.74a67,67,0,0,1,11.84-2.53,89.26,89.26,0,0,0,9.86-1.88c7.1-1.92,13.56-5.55,19.8-9,3.85-2.15,7.8-4.38,11.83-6.16,3.64-1.6,7.5-2.92,11.24-4.19l2-.68v-3.27l-3,1c-3.8,1.29-7.73,2.63-11.49,4.29-4.17,1.83-8.2,4.1-12.1,6.29-6.07,3.41-12.36,6.92-19.09,8.76a85.86,85.86,0,0,1-9.52,1.81,71,71,0,0,0-12.38,2.65c-1.57.55-3.11,1.2-4.6,1.83-1.64.69-3.2,1.36-4.82,1.89-6.54,2.13-13.4,2-20.66,1.79-6.6-.15-13.43-.32-20,1.42a69.89,69.89,0,0,0-11.16,4.37c-1.88.87-3.84,1.77-5.77,2.54-2.35.95-4.57,2-6.73,3.12s-4.48,2.23-6.84,3.16a15.12,15.12,0,0,1-8.37,1c-6.23-5.09-12.7-10.31-20.39-13.79a132.27,132.27,0,0,0-16.59-5.8c-2.56-.77-5.16-1.57-7.75-2.43l1.19-.23c1-.2,2-.39,3.21-.7a76.23,76.23,0,0,0,10.5-3.69c7.47-3,14.75-6.13,21.55-10.74,2.28-1.54,4.52-3.23,6.89-5,5.82-4.4,11.84-9,18.34-10.92,2-.62,4.11-.25,6.3.14a26.87,26.87,0,0,0,4.3.52,49.92,49.92,0,0,0,11.12-.69c4.86-1,9.18-3.37,13.37-5.62,2.2-1.18,4.47-2.4,6.75-3.38,8.46-3.68,16.46-8.69,24.19-13.53l1.64-1c2.57-1.6,5.18-3.26,7.7-4.86,11.78-7.5,23.9-15.2,36.88-20.78a7.48,7.48,0,0,0,.44,5.84c1.49,3.55,4.61,5.89,7.69,8a16.36,16.36,0,0,1,4.83,4.41,18.5,18.5,0,0,1,1.58,3.52,26.58,26.58,0,0,0,1.45,3.39,25.66,25.66,0,0,0,4.93,5.86c1,1,1.9,1.84,2.73,2.81a26.16,26.16,0,0,1,3.53,5.52v-6c-.38-.52-.77-1-1.2-1.54a39.8,39.8,0,0,0-2.92-3,22.63,22.63,0,0,1-4.37-5.12,23.67,23.67,0,0,1-1.26-3,21.09,21.09,0,0,0-1.87-4.1,19.29,19.29,0,0,0-5.7-5.31c-2.81-1.93-5.43-3.85-6.61-6.64-.67-1.58-.77-2.73-.36-3.63A9.61,9.61,0,0,1,1987.24,1236.66Z" transform="translate(-1594.68 -1001.79)"/><path class="cls-1" d="M2008.45,1381.48H1768a1.54,1.54,0,0,1-1.54-1.54V1159.08a1.54,1.54,0,0,1,3.08,0V1378.4h237.4V1158.17a1.54,1.54,0,0,1,3.08,0v221.77A1.54,1.54,0,0,1,2008.45,1381.48Z" transform="translate(-1594.68 -1001.79)"/><path class="cls-1" d="M1768,1173.17a1.54,1.54,0,0,1-1.54-1.54v-13.46a1.54,1.54,0,0,1,1.54-1.54h17.18a1.54,1.54,0,0,1,0,3.08h-15.64v11.92A1.54,1.54,0,0,1,1768,1173.17Z" transform="translate(-1594.68 -1001.79)"/><path class="cls-1" d="M2008.45,1173.17a1.54,1.54,0,0,1-1.54-1.54v-11.92h-15.64a1.54,1.54,0,0,1,0-3.08h17.18a1.54,1.54,0,0,1,1.54,1.54v13.46A1.54,1.54,0,0,1,2008.45,1173.17Z" transform="translate(-1594.68 -1001.79)"/><path class="cls-1" d="M1785.15,1159.71a1.54,1.54,0,0,1-1.54-1.54v-13c-.1-20.2-.23-47.87,27.62-75.59,12.22-12.17,26-19.08,40.61-26.4,3.54-1.77,7.2-3.6,10.82-5.51,8.12-4.28,21-14.48,24.1-23.75a1.54,1.54,0,1,1,2.92,1h0c-3.41,10.08-17,21-25.59,25.49-3.64,1.93-7.31,3.76-10.87,5.54-14.37,7.21-28,14-39.82,25.83-26.93,26.81-26.8,53.73-26.71,73.39v13a1.54,1.54,0,0,1-1.54,1.54Z" transform="translate(-1594.68 -1001.79)"/><path class="cls-1" d="M1991.27,1159.71h0a1.54,1.54,0,0,1-1.54-1.54v-13c.1-19.66.23-46.58-26.71-73.39-11.87-11.82-25.45-18.62-39.82-25.83-3.55-1.78-7.22-3.62-10.87-5.54-8.57-4.52-22.18-15.39-25.59-25.49a1.54,1.54,0,1,1,2.92-1c3.14,9.27,16,19.47,24.1,23.75,3.62,1.92,7.28,3.74,10.82,5.51,14.6,7.31,28.39,14.24,40.61,26.4,27.85,27.7,27.71,55.4,27.62,75.59v13a1.54,1.54,0,0,1-1.54,1.54Z" transform="translate(-1594.68 -1001.79)"/><path class="cls-1" d="M2016.14,1388.79H1760.28a1.16,1.16,0,0,1-1.16-1.16V1154.85a1.16,1.16,0,0,1,2.31,0v231.63H2015V1153.91a1.16,1.16,0,0,1,2.31,0v233.72A1.16,1.16,0,0,1,2016.14,1388.79Z" transform="translate(-1594.68 -1001.79)"/><path class="cls-1" d="M1760.28,1165.77a1.16,1.16,0,0,1-1.16-1.16v-14.14a1.16,1.16,0,0,1,1.16-1.15h17.15a1.16,1.16,0,1,1,0,2.31h-16v13A1.15,1.15,0,0,1,1760.28,1165.77Z" transform="translate(-1594.68 -1001.79)"/><path class="cls-1" d="M2016.14,1169.21a1.16,1.16,0,0,1-1.15-1.16v-16.42h-16a1.16,1.16,0,0,1,0-2.31h17.15a1.16,1.16,0,0,1,1.16,1.15v17.58A1.16,1.16,0,0,1,2016.14,1169.21Z" transform="translate(-1594.68 -1001.79)"/><path class="cls-1" d="M1999,1151.63a1.15,1.15,0,0,1-1.15-1.16h0l0-6.66c0-21,0-49.77-31-79.87-11.22-10.91-21.19-15.84-33.82-22.07-5.4-2.67-11-5.43-17.31-9-11-6.19-24.82-18.65-28.6-29.56a1.16,1.16,0,0,1,.71-1.48,1.15,1.15,0,0,1,1.47.71h0c3.6,10.38,16.88,22.31,27.55,28.3,6.28,3.52,11.84,6.27,17.22,8.92,12.31,6.08,22.91,11.32,34.4,22.49,14,13.58,23,28,27.64,44.25,4,14,4,26.91,4,37.27l0,6.66a1.16,1.16,0,0,1-1.16,1.15Z" transform="translate(-1594.68 -1001.79)"/><path class="cls-1" d="M1777.43,1151.63h0a1.15,1.15,0,0,1-1.15-1.16h0l0-6.66c0-10.35,0-23.24,4-37.26,4.64-16.21,13.68-30.68,27.63-44.25,11.49-11.16,22.11-16.42,34.41-22.49,5.38-2.66,10.94-5.39,17.22-8.92,10.67-6,24-17.93,27.54-28.31a1.16,1.16,0,0,1,2.18.77c-3.78,10.89-17.55,23.38-28.6,29.53-6.32,3.55-11.92,6.31-17.31,9-12.62,6.23-22.59,11.16-33.82,22.07-31,30.11-31,58.87-31,79.87l0,6.67a1.17,1.17,0,0,1-1.15,1.16Z" transform="translate(-1594.68 -1001.79)"/><circle class="cls-1" cx="217.29" cy="174.45" r="1.15"/><circle class="cls-1" cx="352.49" cy="175.61" r="1.15"/><circle class="cls-1" cx="310.57" cy="156.38" r="1.15"/><circle class="cls-1" cx="276.5" cy="156.38" r="1.15"/><circle class="cls-1" cx="400.99" cy="217.01" r="1.15"/><circle class="cls-1" cx="293.53" cy="206.46" r="1.15"/><text class="cls-2" transform="translate(1.32 490.85)"><tspan class="cls-3">L</tspan><tspan x="73.51" y="0">O</tspan><tspan class="cls-4" x="163.67" y="0">P</tspan><tspan x="236.12" y="0">H</tspan><tspan class="cls-5" x="332.88" y="0">E</tspan><tspan class="cls-6" x="411.35" y="0">N</tspan><tspan x="500.43" y="0">O</tspan></text><text class="cls-7" transform="translate(172.9 542.33)">HIRE AND DESIGN</text></svg>